<?xml version="1.0" standalone="no"?>
<!DOCTYPE svg PUBLIC "-//W3C//DTD SVG 20010904//EN"
 "http://www.w3.org/TR/2001/REC-SVG-20010904/DTD/svg10.dtd">
<svg version="1.0" xmlns="http://www.w3.org/2000/svg"
 width="1280.000000pt" height="996.000000pt" viewBox="0 0 1280.000000 996.000000"
 preserveAspectRatio="xMidYMid meet">
<g transform="translate(0.000000,996.000000) scale(0.100000,-0.100000)"
fill="#fff" stroke="none">
<path d="M10695 9939 c-26 -14 -1065 -1046 -2906 -2886 -1577 -1576 -2871
-2864 -2877 -2862 -6 2 -619 580 -1363 1284 -744 704 -1366 1290 -1383 1303
-43 32 -92 43 -140 32 -91 -20 -120 -40 -251 -175 -71 -74 -490 -501 -930
-950 -495 -505 -808 -832 -822 -858 -12 -23 -22 -51 -23 -62 -1 -59 72 -132
1495 -1481 1237 -1173 1558 -1484 2380 -2303 833 -831 956 -950 998 -965 l48
-18 37 28 c20 15 136 125 257 244 121 119 549 539 950 933 402 394 2047 2031
3658 3639 2596 2593 2930 2929 2952 2978 30 67 31 85 5 147 -18 40 -176 203
-963 991 -923 924 -1006 1002 -1062 1001 -11 0 -38 -9 -60 -20z"/>
</g>
</svg>
