<svg version="1.0" xmlns="http://www.w3.org/2000/svg" width="1706.667" height="1328" viewBox="0 0 1280 996"><path d="M1069.5 2.1c-2.6 1.4-106.5 104.6-290.6 288.6-157.7 157.6-287.1 286.4-287.7 286.2-.6-.2-61.9-58-136.3-128.4s-136.6-129-138.3-130.3c-4.3-3.2-9.2-4.3-14-3.2-9.1 2-12 4-25.1 17.5-7.1 7.4-49 50.1-93 95C35 478 3.7 510.7 2.3 513.3c-1.2 2.3-2.2 5.1-2.3 6.2-.1 5.9 7.2 13.2 149.5 148.1 123.7 117.3 155.8 148.4 238 230.3 83.3 83.1 95.6 95 99.8 96.5l4.8 1.8 3.7-2.8c2-1.5 13.6-12.5 25.7-24.4 12.1-11.9 54.9-53.9 95-93.3 40.2-39.4 204.7-203.1 365.8-363.9 259.6-259.3 293-292.9 295.2-297.8 3-6.7 3.1-8.5.5-14.7-1.8-4-17.6-20.3-96.3-99.1C1089.4 7.8 1081.1 0 1075.5.1c-1.1 0-3.8.9-6 2z" fill="#fff"/></svg>