<svg xmlns="http://www.w3.org/2000/svg" width="256" height="256"><g stroke-width="0" stroke-miterlimit="10" fill="none"><path d="M213.553 222.493H42.45c-22.326 0-40.486-18.16-40.486-40.485V73.989c0-22.322 18.163-40.485 40.486-40.485h171.103c22.323 0 40.483 18.163 40.483 40.485v108.019c0 22.325-18.16 40.485-40.483 40.485zM42.45 45.343c-15.797 0-28.647 12.85-28.647 28.646v108.019c0 15.796 12.85 28.65 28.647 28.65h171.103c15.797 0 28.647-12.854 28.647-28.65V73.989c0-15.796-12.85-28.646-28.647-28.646H42.45z"/><path d="M32.896 74.552l90.78 88.458c5.64 5.495 14.298-3.142 8.648-8.649l-90.78-88.455c-5.64-5.498-14.297 3.143-8.648 8.646z"/><path d="M132.324 163.01l90.78-88.455c5.646-5.503-3.005-14.147-8.649-8.649l-90.78 88.455c-5.646 5.504 3.006 14.147 8.65 8.649z"/><path d="M222.77 183.882c-20.134-19.096-40.272-38.19-60.407-57.285-5.71-5.414-14.374 3.218-8.649 8.649 20.135 19.096 40.273 38.189 60.408 57.284 5.71 5.414 14.374-3.22 8.649-8.648zm-180.346 8.646c20.135-19.096 40.273-38.19 60.408-57.285 5.722-5.428-2.935-14.066-8.649-8.649-20.135 19.096-40.273 38.189-60.408 57.285-5.722 5.428 2.936 14.068 8.65 8.649z"/></g></svg>