<svg fill="#fff" xmlns="http://www.w3.org/2000/svg" width="50" height="50"><path d="M14 3.99c-5.511 0-10 4.489-10 10v22c0 5.512 4.489 10 10 10h22c5.511 0 10-4.488 10-10v-22c0-5.511-4.489-10-10-10H14zm4.006 8.043c.628.027 1.205.381 1.553.924l1.81 2.828a3.753 3.753 0 01.129 3.805l-1.465 2.084a1.996 1.996 0 00-.209 1.922c.414.99 1.217 2.511 2.643 3.937a12.396 12.396 0 003.937 2.643 1.996 1.996 0 001.922-.21l2.084-1.464a3.755 3.755 0 013.805.129l2.828 1.81c.543.348.897.925.924 1.553.154 3.564-2.607 5.008-3.41 5.008-.556 0-7.24.76-14.78-6.78-7.539-7.538-6.779-14.223-6.779-14.779 0-.803 1.444-3.564 5.008-3.41z"/></svg>