<svg xmlns="http://www.w3.org/2000/svg" viewBox="0 0 100.5 100.5" style="enable-background:new 0 0 100.5 100.5" xml:space="preserve"><path d="m63.431 39.021-16.88 18.908-8.566-8.565a1.5 1.5 0 1 0-2.121 2.121l9.688 9.688c.281.282.663.439 1.061.439l.042-.001a1.5 1.5 0 0 0 1.077-.5L65.67 41.019a1.5 1.5 0 1 0-2.239-1.998z"/><path d="M92.075 50c.028-.114.047-.232.047-.355 0-3.998-4.147-6.064-7.807-7.888-2.598-1.294-5.283-2.633-5.998-4.32-.728-1.722.3-4.528 1.292-7.243 1.384-3.783 2.814-7.694.175-10.331-2.588-2.588-6.372-1.712-10.033-.861-2.562.594-5.213 1.207-6.978.461-1.723-.729-3.155-2.989-4.54-5.177-2.009-3.169-4.284-6.762-8.233-6.762-3.956 0-6.188 3.671-8.156 6.911-1.366 2.249-2.779 4.573-4.5 5.301-1.759.745-4.438.07-7.028-.581-3.69-.926-7.505-1.888-10.099.709-2.621 2.62-1.351 6.551-.121 10.354.878 2.713 1.785 5.519 1.051 7.256-.716 1.694-3.282 3.021-5.765 4.305-3.517 1.818-7.504 3.879-7.504 7.868 0 .124.02.243.048.358a1.482 1.482 0 0 0-.047.355c0 3.989 3.987 6.05 7.505 7.868 2.481 1.283 5.048 2.61 5.764 4.304.734 1.737-.173 4.543-1.051 7.257-1.229 3.802-2.5 7.732.12 10.353 2.596 2.597 6.411 1.638 10.1.709 2.591-.65 5.271-1.323 7.029-.579 1.72.727 3.133 3.051 4.499 5.299 1.969 3.239 4.2 6.91 8.156 6.91 3.949 0 6.225-3.593 8.233-6.762 1.386-2.188 2.818-4.448 4.538-5.177 1.772-.748 4.418-.134 6.979.461 3.659.849 7.445 1.729 10.031-.86 2.642-2.638 1.211-6.55-.173-10.332-.993-2.715-2.02-5.521-1.293-7.241.716-1.688 3.401-3.027 5.999-4.321 3.659-1.823 7.807-3.89 7.807-7.888a1.463 1.463 0 0 0-.047-.361zm-9.097 5.56c-3.085 1.537-6.275 3.127-7.424 5.838-1.187 2.81.046 6.181 1.238 9.44 1.108 3.031 2.156 5.896.869 7.18-1.409 1.412-4.239.755-7.232.061-3.028-.702-6.159-1.429-8.825-.302-2.585 1.094-4.272 3.758-5.904 6.334-1.749 2.76-3.401 5.367-5.699 5.367-2.269 0-3.883-2.656-5.593-5.468-1.613-2.655-3.282-5.401-5.894-6.504-2.685-1.138-5.858-.34-8.93.433-3.01.755-5.853 1.473-7.246.079-1.323-1.322-.383-4.23.612-7.309 1.047-3.235 2.128-6.581.96-9.348-1.138-2.692-4.194-4.272-7.149-5.801-3.025-1.563-5.883-3.04-5.883-5.203 0-.124-.02-.243-.048-.359.028-.114.047-.232.047-.355 0-2.163 2.857-3.64 5.882-5.203 2.956-1.528 6.013-3.108 7.15-5.802 1.168-2.766.087-6.111-.96-9.347-.995-3.079-1.936-5.987-.611-7.31 1.39-1.393 4.233-.677 7.245.08 3.07.771 6.243 1.572 8.929.434 2.612-1.104 4.281-3.85 5.896-6.505 1.709-2.813 3.323-5.469 5.592-5.469 2.298 0 3.95 2.607 5.698 5.368 1.633 2.576 3.32 5.24 5.906 6.335 2.666 1.127 5.797.4 8.825-.303 2.993-.694 5.822-1.351 7.233.062 1.285 1.283.237 4.147-.871 7.179-1.192 3.26-2.425 6.631-1.237 9.442 1.147 2.71 4.338 4.3 7.423 5.837 3.16 1.574 6.145 3.062 6.145 5.202 0 .124.02.243.048.358a1.482 1.482 0 0 0-.047.355c0 2.143-2.985 3.63-6.145 5.204z"/></svg>