<?xml version="1.0" standalone="no"?>
<!DOCTYPE svg PUBLIC "-//W3C//DTD SVG 20010904//EN"
 "http://www.w3.org/TR/2001/REC-SVG-20010904/DTD/svg10.dtd">
<svg version="1.0" xmlns="http://www.w3.org/2000/svg"
 width="512.000000pt" height="512.000000pt" viewBox="0 0 512.000000 512.000000"
 preserveAspectRatio="xMidYMid meet">
<metadata>
Created by potrace 1.14, written by Peter Selinger 2001-2017
</metadata>
<g transform="translate(0.000000,512.000000) scale(0.100000,-0.100000)"
fill="#000000" stroke="none">
<path d="M1446 4892 c7 -4 9 -22 4 -52 -4 -25 -8 -36 -9 -24 -2 39 -30 51
-116 52 -59 0 -85 -4 -97 -15 -10 -9 -18 -12 -18 -6 0 6 -10 10 -22 9 -13 -1
-25 2 -28 6 -3 4 -19 0 -35 -8 -19 -10 -31 -11 -33 -5 -2 6 -8 9 -13 5 -5 -3
-17 2 -26 11 -13 13 -18 14 -24 3 -7 -10 -9 -9 -9 3 0 14 -6 16 -35 9 -20 -4
-38 -4 -41 1 -3 5 -9 7 -12 5 -4 -2 -28 -7 -52 -11 -258 -37 -522 -270 -614
-543 -48 -140 -47 -122 -44 -1822 4 -1808 -4 -1635 83 -1817 118 -244 342
-414 610 -463 43 -8 533 -10 1685 -8 l1625 3 70 24 c241 81 421 235 521 446
86 182 78 8 82 1820 2 1118 0 1630 -8 1675 -56 337 -316 615 -640 684 -90 19
-210 29 -210 18 0 -4 -9 -8 -19 -8 -11 0 -17 4 -14 9 6 10 -123 4 -134 -6 -3
-4 -16 -7 -27 -6 -21 0 -21 1 -1 9 11 5 15 9 9 9 -6 1 -26 -6 -44 -15 -29 -15
-34 -15 -44 -2 -10 14 -20 14 -56 1 -33 -12 -69 -10 -74 4 -3 8 -10 12 -15 8
-6 -3 -7 -13 -4 -21 5 -14 3 -15 -17 -4 -13 7 -36 9 -57 5 -21 -4 -40 -2 -49
6 -11 9 -14 9 -14 -1 0 -9 -18 -11 -69 -8 -38 3 -75 2 -81 -2 -7 -4 -27 -4
-46 0 -19 5 -32 4 -28 -1 4 -8 -24 -13 -63 -12 -7 1 -11 -2 -9 -6 3 -4 -10 -7
-29 -7 -19 0 -31 4 -29 8 3 4 14 8 25 8 11 0 17 5 14 10 -4 6 -10 8 -14 6 -7
-5 -147 -20 -166 -18 -5 0 -20 4 -32 7 -18 6 -23 3 -23 -11 -1 -18 -1 -18 -15
0 -8 11 -15 16 -15 10 0 -5 -23 -10 -52 -12 -28 -1 -57 -7 -64 -13 -11 -9 -14
-8 -14 5 0 9 -8 16 -21 16 -11 0 -18 -4 -15 -9 3 -5 -1 -14 -9 -21 -12 -10
-15 -10 -15 3 0 12 -9 15 -41 14 -22 -2 -43 1 -45 5 -3 5 -13 4 -23 -2 -12 -6
-22 -5 -28 1 -8 8 -13 7 -17 0 -8 -12 -56 -15 -56 -3 0 4 -14 8 -30 9 -18 1
-28 -2 -25 -7 4 -6 2 -10 -4 -10 -5 0 -12 6 -14 13 -4 8 -8 9 -14 2 -11 -15
-53 -16 -53 -2 0 7 -7 3 -15 -7 -8 -11 -15 -14 -15 -7 0 7 -4 10 -9 6 -5 -3
-12 -1 -16 5 -4 6 -11 8 -16 4 -25 -15 -69 -15 -75 1 -5 12 -10 13 -20 4 -7
-6 -18 -8 -24 -4 -5 3 -10 1 -10 -4 0 -6 -5 -11 -11 -11 -5 0 -7 5 -4 10 3 6
-3 10 -14 10 -10 0 -27 3 -37 7 -13 5 -16 3 -11 -10 8 -22 -9 -22 -22 1 -6 9
-11 12 -11 5 0 -9 -8 -9 -29 -2 -19 7 -36 7 -48 1 -10 -5 -27 -6 -38 -2 -11 4
-25 3 -32 -2 -7 -5 -14 -5 -18 2 -3 5 -11 10 -16 10 -6 0 -7 -4 -4 -10 3 -5 1
-10 -4 -10 -6 0 -11 5 -11 11 0 7 -32 10 -100 7 -55 -1 -100 1 -100 5 0 5 -38
7 -84 4 -65 -3 -86 -1 -90 9 -3 8 -13 14 -23 14 -11 0 -14 -3 -7 -8z m-446
-41 c0 -4 -7 -8 -15 -8 -16 0 -20 9 -9 20 8 8 24 -1 24 -12z m410 -1 c0 -5 -2
-10 -4 -10 -3 0 -8 5 -11 10 -3 6 -1 10 4 10 6 0 11 -4 11 -10z m-175 -122 c5
-29 7 -68 7 -87 -2 -39 7 -37 10 2 2 21 8 27 25 27 13 0 23 -5 23 -11 0 -6 7
-3 16 5 14 15 36 21 58 17 16 -3 55 41 61 71 18 78 25 -15 25 -317 1 -729 0
-861 -11 -842 -6 10 -12 30 -14 45 -2 15 -4 28 -4 30 -1 1 -1 5 0 8 0 4 -5 10
-12 15 -11 6 -10 9 3 14 9 4 14 13 11 21 -3 8 -9 11 -14 8 -5 -3 -9 0 -9 5 0
6 5 11 10 11 6 0 10 4 10 10 0 6 -10 5 -25 -2 -13 -6 -22 -15 -19 -19 3 -5 0
-9 -5 -9 -14 0 -14 13 0 27 7 7 0 15 -26 27 -34 17 -55 15 -55 -5 0 -6 5 -7
10 -4 6 3 10 1 10 -4 0 -6 -4 -11 -9 -11 -5 0 -17 -3 -26 -7 -14 -5 -16 -2
-11 18 6 21 5 22 -4 6 -7 -10 -9 -25 -6 -33 3 -8 1 -14 -5 -14 -16 0 -7 53 14
76 18 21 18 22 -3 27 -19 5 -20 8 -9 20 12 13 14 13 17 1 2 -8 8 -12 13 -9 21
13 30 -8 12 -28 l-18 -22 22 19 c12 10 25 27 28 37 4 11 11 17 16 13 6 -3 4
-15 -5 -30 -21 -30 -20 -34 4 -34 11 0 20 -4 20 -9 0 -11 38 -2 46 10 3 5 -1
6 -9 3 -11 -4 -14 2 -12 21 3 22 0 25 -17 19 -14 -4 -18 -2 -14 5 4 6 0 21 -8
33 -9 12 -16 17 -16 10 0 -6 -7 -12 -16 -12 -8 0 -12 -4 -9 -10 4 -6 -1 -7
-11 -3 -14 5 -13 8 7 24 13 10 25 27 25 39 1 15 -2 18 -12 9 -7 -6 -10 -17 -7
-25 3 -8 0 -15 -6 -15 -49 -6 -69 -19 -69 -47 1 -15 -1 -71 -2 -124 l-4 -98
-119 0 c-114 0 -119 -1 -114 -20 5 -19 0 -20 -109 -20 l-114 0 0 128 c0 70 -1
253 -2 407 -2 401 2 554 12 530 5 -11 9 -15 9 -8 1 10 31 26 53 28 4 0 13 6
20 13 6 6 20 12 29 12 10 0 20 9 24 20 5 15 12 18 36 13 18 -3 29 -1 29 6 0 6
5 11 11 11 6 0 8 -7 5 -15 -3 -9 1 -18 9 -21 8 -4 12 -11 9 -16 -4 -6 2 -5 14
1 12 6 24 15 27 21 3 5 12 7 20 3 11 -4 13 -1 8 12 -5 15 -2 17 16 12 29 -7
53 2 44 17 -4 6 1 5 10 -3 13 -10 17 -10 17 -1 0 10 3 10 15 0 12 -10 15 -10
15 4 0 9 4 16 9 16 5 0 12 -24 16 -52z m1255 -2 c0 -3 -4 -8 -10 -11 -5 -3
-10 -1 -10 4 0 6 5 11 10 11 6 0 10 -2 10 -4z m90 -6 c9 -1 6 -5 -7 -10 -15
-6 -20 -15 -16 -29 3 -12 8 -21 12 -22 3 0 16 -2 29 -5 18 -3 22 1 22 20 0 13
6 26 13 29 17 6 47 -4 47 -15 0 -6 -8 -7 -17 -3 -15 5 -16 4 -5 -6 18 -19 15
-29 -10 -30 -22 0 -22 -1 -3 -9 18 -8 18 -9 -5 -9 -19 -1 -21 -4 -11 -10 23
-15 60 19 67 62 4 20 11 37 16 37 6 0 8 -7 4 -15 -3 -9 0 -15 10 -15 9 0 12
-5 8 -12 -5 -7 -3 -8 5 -4 7 5 10 13 8 20 -3 6 7 11 24 12 l29 1 -22 -16 c-13
-8 -29 -21 -37 -29 -11 -11 -15 -11 -22 0 -7 10 -9 9 -9 -4 0 -12 8 -18 23
-18 13 0 27 -3 31 -7 6 -7 24 -11 57 -15 10 -1 15 -8 11 -16 -4 -12 -1 -12 16
-3 12 7 22 17 22 23 0 6 11 8 31 4 26 -5 29 -3 24 13 -3 12 0 21 9 24 11 4 13
1 9 -11 -6 -14 -4 -15 9 -4 11 9 18 10 23 2 3 -5 15 -10 26 -10 12 0 17 -4 14
-11 -4 -6 -14 -8 -22 -4 -14 5 -14 3 -2 -11 12 -15 11 -16 -8 -10 -12 4 -31 2
-42 -4 -15 -8 -22 -7 -28 4 -6 10 -13 12 -23 6 -12 -8 -12 -10 3 -16 26 -10
21 -34 -7 -34 -18 0 -24 -5 -23 -19 0 -11 5 -17 9 -15 5 3 6 9 3 14 -3 5 7 10
22 12 17 2 27 8 25 16 -2 10 4 11 19 7 15 -5 19 -4 15 4 -4 6 -4 11 1 12 42 4
70 3 67 -2 -11 -19 30 -15 52 4 27 23 64 32 64 15 0 -6 -7 -8 -15 -4 -10 3
-15 -1 -15 -14 0 -10 -4 -21 -10 -25 -5 -3 -6 -13 -3 -22 4 -11 3 -14 -5 -9
-7 4 -12 2 -12 -3 0 -6 -5 -11 -11 -11 -5 0 -7 6 -3 13 5 6 -3 4 -16 -6 -14
-10 -33 -20 -42 -24 -10 -3 -18 -9 -18 -14 0 -12 2 -12 51 11 24 11 54 20 67
20 13 0 21 3 19 8 -3 4 15 5 39 3 39 -3 44 -6 44 -27 0 -13 -5 -24 -11 -24 -6
0 -3 -7 6 -16 10 -11 20 -13 28 -6 17 13 67 21 67 11 0 -5 -12 -9 -26 -9 -24
0 -25 -2 -13 -17 12 -15 12 -16 -3 -10 -10 3 -20 2 -23 -3 -10 -16 -23 -11
-30 10 -8 26 -25 26 -25 -1 0 -20 -1 -21 -25 -5 -14 9 -30 14 -35 11 -13 -8
-13 11 1 38 9 18 9 20 -1 10 -9 -8 -19 -9 -30 -3 -16 9 -17 6 -11 -41 1 -4 21
-12 45 -18 25 -6 51 -17 59 -25 8 -8 17 -13 19 -10 3 2 13 -6 24 -17 19 -22
19 -22 -3 -10 -19 10 -23 9 -23 -3 0 -8 -5 -18 -12 -22 -7 -5 -8 -3 -3 6 6 10
4 12 -8 7 -48 -20 -51 -19 -25 6 16 14 24 28 20 31 -10 6 -46 -25 -54 -46 -9
-22 -68 -35 -79 -17 -4 7 -11 10 -15 6 -4 -4 3 -19 17 -33 20 -23 21 -25 4
-16 -15 7 -25 7 -38 -3 -18 -13 -24 -31 -7 -20 5 3 19 0 31 -8 11 -8 28 -13
39 -10 10 3 21 0 24 -6 4 -6 0 -11 -9 -11 -10 0 -13 -5 -9 -12 5 -8 1 -7 -10
2 -26 21 -66 24 -66 5 0 -16 -18 -20 -35 -7 -14 10 -13 35 2 44 15 11 5 43
-20 65 l-22 18 19 -22 c11 -13 14 -23 8 -23 -7 0 -12 -7 -12 -16 0 -13 -7 -15
-30 -11 -22 5 -28 3 -24 -7 3 -7 -3 -17 -13 -20 -16 -7 -16 -9 7 -22 14 -9 18
-13 9 -10 -9 2 -27 -3 -39 -11 -21 -15 -22 -15 -10 7 6 12 8 25 4 28 -4 4 -9
1 -11 -5 -7 -19 -30 -16 -37 4 -6 15 -9 15 -16 3 -7 -11 -14 -12 -34 -2 -14 6
-26 8 -26 3 0 -11 25 -21 53 -21 12 0 29 -5 37 -10 13 -9 13 -11 0 -19 -10 -7
-17 -6 -23 2 -6 9 -10 9 -14 -2 -4 -11 -7 -11 -13 0 -7 10 -11 10 -25 -1 -13
-11 -13 -15 -3 -23 14 -9 3 -7 -35 8 -13 5 -16 3 -11 -8 9 -23 34 -29 58 -14
27 18 96 27 96 12 0 -5 7 -2 15 9 7 10 19 16 26 14 8 -3 7 -9 -4 -20 -9 -8
-14 -18 -11 -20 2 -3 -2 -11 -11 -18 -9 -7 -15 -8 -15 -2 0 6 6 13 13 15 11 5
-3 8 -50 10 -13 1 -17 -5 -16 -21 2 -12 -2 -22 -7 -22 -6 0 -10 9 -10 20 0 19
-1 20 -25 4 -13 -8 -29 -13 -35 -9 -6 4 -9 -3 -6 -17 2 -13 9 -22 15 -20 6 1
11 -3 11 -9 0 -6 -6 -9 -12 -6 -48 20 -48 20 -41 1 5 -13 3 -15 -8 -9 -8 5
-27 8 -44 6 -24 -2 -28 0 -17 10 20 21 14 29 -24 29 -19 0 -33 -4 -30 -9 7
-10 -20 -9 -30 2 -13 12 -24 7 -18 -8 4 -9 1 -15 -7 -14 -23 1 -50 14 -52 24
-4 19 -42 10 -45 -10 -6 -36 -12 -46 -22 -40 -8 5 -7 11 1 21 8 10 8 18 1 27
-6 6 -9 27 -8 45 3 38 -8 49 -30 31 -12 -10 -12 -14 -2 -22 10 -6 8 -7 -4 -3
-10 3 -20 1 -23 -4 -4 -6 0 -10 7 -10 9 0 9 -3 -2 -10 -8 -5 -15 -15 -15 -21
0 -7 -6 -14 -12 -16 -14 -5 -18 9 -6 21 4 3 8 16 10 29 2 12 17 34 34 50 17
15 29 30 26 33 -3 3 -17 -7 -32 -22 -25 -25 -29 -26 -40 -11 -9 12 -14 14 -23
5 -9 -9 -15 -7 -25 7 -10 12 -16 14 -21 7 -4 -7 -15 -12 -26 -12 -19 0 -35
-26 -21 -35 5 -3 7 -14 4 -26 -4 -15 -8 -17 -13 -8 -5 7 -6 18 -3 25 2 6 -1
15 -7 19 -15 10 27 40 74 54 22 5 43 8 47 5 5 -3 6 2 3 10 -3 9 -14 16 -23 17
-14 0 -14 1 -1 7 9 4 15 19 15 34 -1 17 3 24 8 19 10 -10 77 16 77 30 0 3 -8
13 -17 20 -14 12 -16 12 -11 -2 8 -20 -29 -44 -46 -30 -7 6 -17 6 -26 1 -21
-13 -27 -12 -34 6 -3 8 -2 12 3 9 5 -3 13 0 17 6 5 9 -2 10 -24 6 -20 -4 -32
-2 -35 6 -3 8 -9 7 -18 -4 -20 -24 -59 -34 -59 -16 0 10 -10 14 -32 13 -33 -1
-58 -22 -71 -58 -3 -10 -11 -18 -17 -18 -14 0 -12 11 6 31 9 10 13 23 9 29 -5
7 -12 4 -24 -9 -11 -13 -22 -16 -32 -11 -8 5 -21 5 -29 -1 -13 -8 -13 -10 0
-19 13 -8 13 -10 -2 -10 -11 0 -24 -14 -33 -36 -18 -45 -18 -44 0 -44 12 0 12
-3 -3 -20 -15 -18 -17 -19 -20 -4 -2 9 2 37 9 61 10 38 10 47 -2 55 -11 8 -11
9 3 5 9 -3 22 1 28 9 7 8 10 14 6 14 -4 0 1 12 10 26 13 19 14 28 6 33 -9 5
-8 12 4 27 14 18 15 18 9 -6 l-6 -25 23 28 c13 15 29 27 36 27 7 0 12 4 12 9
0 14 -28 33 -39 26 -7 -4 -8 1 -5 12 5 13 2 12 -10 -5 -10 -12 -14 -28 -10
-35 6 -9 5 -9 -7 -1 -11 9 -17 9 -26 -1 -6 -7 -9 -16 -6 -19 4 -4 -4 -5 -18
-4 -19 2 -24 -1 -22 -19 1 -11 -4 -27 -12 -33 -12 -10 -13 -16 -4 -26 7 -9 8
-14 1 -14 -14 0 -24 29 -15 43 4 7 8 14 8 17 3 24 19 50 30 50 13 0 31 36 27
53 -1 4 5 7 13 7 26 0 30 1 47 17 10 8 22 31 28 49 12 37 24 43 34 18 11 -29
7 -44 -10 -37 -12 4 -15 2 -12 -8 3 -8 11 -13 17 -11 6 1 11 -2 11 -8 0 -5 7
-7 15 -4 8 4 13 9 11 13 -3 4 5 8 17 8 19 2 18 0 -8 -22 -22 -17 -34 -20 -42
-13 -7 6 -13 9 -14 7 0 -2 -2 -11 -4 -19 -4 -20 30 -23 46 -4 6 8 17 14 25 14
12 0 30 36 26 53 -3 11 16 8 20 -3 2 -6 13 -2 25 10 12 11 29 20 37 20 8 0 15
8 15 18 0 9 2 26 5 37 2 11 5 24 5 28 1 5 6 5 11 2 7 -4 7 -12 0 -25 -6 -11
-6 -21 -1 -24 5 -4 12 0 15 6 3 7 5 5 3 -5 -1 -10 -5 -18 -9 -18 -12 1 -50
-40 -44 -46 6 -6 63 35 101 73 22 22 29 23 27 4 0 -3 15 -4 35 -2 25 3 31 7
22 13 -12 8 -12 10 0 18 18 12 51 2 51 -15 0 -8 -5 -14 -11 -14 -5 0 -7 5 -4
10 3 6 1 10 -4 10 -13 0 -14 -10 -3 -26 10 -15 51 -24 58 -13 3 5 9 7 14 4 5
-3 12 10 16 30 7 38 19 52 29 35 4 -6 1 -18 -7 -27 -11 -15 -11 -16 5 -10 9 4
25 10 35 14 14 6 15 4 4 -9 -7 -8 -10 -24 -6 -34 5 -18 5 -18 -9 -1 -18 21
-33 22 -41 1 -4 -12 -1 -14 13 -9 14 4 21 0 26 -15 6 -20 18 -20 21 1 1 5 3
10 4 12 7 6 5 105 -1 101 -4 -2 -11 1 -15 7 -5 9 0 10 17 6 13 -4 31 -7 39 -7z
m-251 -32 c-5 -18 -9 -35 -9 -37 0 -3 -6 1 -12 7 -10 10 -10 15 2 22 8 5 11
10 6 10 -7 0 12 30 20 30 1 0 -2 -15 -7 -32z m565 7 c22 -17 14 -20 -13 -6
-22 12 -61 3 -61 -14 0 -7 10 -19 22 -27 l22 -15 -24 2 c-13 1 -26 7 -28 13
-2 7 -11 12 -20 12 -15 0 -15 -2 -2 -10 13 -8 13 -10 -2 -10 -9 0 -20 5 -23
10 -3 6 -2 10 4 10 5 0 16 6 23 13 37 37 72 45 102 22z m81 -15 c3 -5 1 -10
-4 -10 -6 0 -11 5 -11 10 0 6 2 10 4 10 3 0 8 -4 11 -10z m-908 -22 c-3 -8 -6
-5 -6 6 -1 11 2 17 5 13 3 -3 4 -12 1 -19z m783 12 c0 -5 -2 -10 -4 -10 -3 0
-8 5 -11 10 -3 6 -1 10 4 10 6 0 11 -4 11 -10z m200 -5 c0 -8 -2 -15 -4 -15
-2 0 -6 7 -10 15 -3 8 -1 15 4 15 6 0 10 -7 10 -15z m-880 -5 c0 -5 -4 -10
-10 -10 -5 0 -10 5 -10 10 0 6 5 10 10 10 6 0 10 -4 10 -10z m254 -5 c3 -8 1
-15 -4 -15 -6 0 -10 7 -10 15 0 8 2 15 4 15 2 0 6 -7 10 -15z m821 5 c-3 -5
-11 -10 -16 -10 -6 0 -7 5 -4 10 3 6 11 10 16 10 6 0 7 -4 4 -10z m-85 -4 c0
-3 -4 -8 -10 -11 -5 -3 -10 -1 -10 4 0 6 5 11 10 11 6 0 10 -2 10 -4z m-1000
-37 c0 -4 -7 -6 -15 -3 -8 4 -15 10 -15 15 0 4 7 6 15 3 8 -4 15 -10 15 -15z
m925 11 c3 -5 1 -10 -4 -10 -6 0 -11 5 -11 10 0 6 2 10 4 10 3 0 8 -4 11 -10z
m230 1 c3 -5 1 -12 -5 -16 -5 -3 -10 1 -10 9 0 18 6 21 15 7z m-1225 -15 c-6
-6 -10 -19 -10 -29 0 -14 -5 -18 -20 -14 -11 3 -20 0 -20 -6 0 -7 -4 -7 -12 1
-10 10 -7 17 12 36 24 22 72 34 50 12z m970 -7 c0 -5 -4 -9 -10 -9 -5 0 -10 7
-10 16 0 8 5 12 10 9 6 -3 10 -10 10 -16z m121 -9 c5 0 9 -5 9 -11 0 -6 -7 -8
-16 -5 -9 3 -12 2 -9 -4 9 -14 39 -8 46 9 4 11 7 9 12 -8 7 -28 -15 -38 -49
-23 -15 8 -24 20 -24 35 0 28 14 45 18 23 2 -9 8 -16 13 -16z m63 18 c-3 -4 3
-8 13 -9 10 0 13 -3 6 -6 -7 -2 -13 -12 -13 -20 0 -19 -10 -12 -14 9 -1 7 -5
18 -8 24 -4 6 -1 11 7 11 8 0 12 -4 9 -9z m110 -14 c3 -8 2 -12 -4 -9 -6 3
-10 10 -10 16 0 14 7 11 14 -7z m-1451 -19 c-8 -22 -22 -18 -16 5 3 11 9 17
14 15 4 -3 6 -12 2 -20z m-63 -10 c0 -14 -4 -25 -9 -25 -4 0 -6 11 -3 25 2 14
6 25 8 25 2 0 4 -11 4 -25z m-87 -5 c3 -11 0 -23 -5 -27 -6 -3 -8 -1 -4 5 3 5
1 12 -6 14 -6 2 -8 10 -4 16 10 16 13 15 19 -8z m187 0 c0 -5 -5 -10 -11 -10
-5 0 -7 5 -4 10 3 6 8 10 11 10 2 0 4 -4 4 -10z m-250 -14 c0 -2 -7 -9 -15
-16 -13 -11 -14 -10 -9 4 5 14 24 23 24 12z m220 0 c0 -2 -7 -7 -16 -10 -8 -3
-12 -2 -9 4 6 10 25 14 25 6z m1389 -33 c-6 -7 -8 -17 -4 -23 3 -5 0 -10 -7
-10 -16 0 -18 40 -3 56 14 16 27 -6 14 -23z m211 33 c0 -3 -4 -8 -10 -11 -5
-3 -10 -1 -10 4 0 6 5 11 10 11 6 0 10 -2 10 -4z m-256 -21 c-4 -8 -1 -15 5
-15 6 0 8 -7 5 -15 -4 -8 -10 -15 -15 -15 -4 0 -6 7 -3 15 4 10 0 15 -11 15
-14 0 -15 3 -5 15 7 8 16 15 21 15 5 0 6 -7 3 -15z m-1488 -22 c-9 -10 -56
-12 -56 -3 0 5 10 10 23 12 24 4 42 -1 33 -9z m89 5 c-16 -9 -16 -12 -4 -17
13 -5 12 -9 -3 -23 -16 -16 -18 -16 -18 -1 0 13 -3 12 -19 -5 -10 -12 -21 -19
-25 -15 -6 6 -10 -12 -7 -30 1 -5 -3 -6 -9 -2 -5 3 -10 -1 -10 -9 0 -9 -9 -16
-20 -16 -18 0 -19 3 -10 20 6 11 23 28 38 37 15 9 29 19 32 21 2 1 -2 8 -10
13 -12 9 -12 10 3 5 9 -3 17 -1 17 5 0 6 5 7 10 4 6 -3 13 1 16 9 3 9 14 16
23 16 13 -1 13 -3 -4 -12z m-185 -13 c0 -9 -6 -12 -15 -9 -11 4 -13 2 -9 -9 3
-8 1 -18 -5 -21 -13 -9 -10 37 4 46 16 12 25 9 25 -7z m1731 -19 c5 3 9 0 9
-5 0 -6 -7 -11 -15 -11 -8 0 -15 8 -14 18 0 10 3 12 6 4 2 -6 9 -10 14 -6z
m-1651 -14 c0 -4 -9 -13 -20 -20 -23 -14 -26 -8 -7 13 13 16 27 19 27 7z
m1591 -10 c-5 -10 -18 -25 -28 -33 -12 -10 -11 -5 6 19 24 35 38 43 22 14z
m42 -9 c-7 -2 -19 -2 -25 0 -7 3 -2 5 12 5 14 0 19 -2 13 -5z m-1723 -35 c0
-6 -7 -5 -15 2 -8 7 -15 17 -15 22 0 6 7 5 15 -2 8 -7 15 -17 15 -22z m-140
12 c0 -5 -5 -10 -11 -10 -5 0 -7 5 -4 10 3 6 8 10 11 10 2 0 4 -4 4 -10z m90
-20 c0 -5 -4 -10 -10 -10 -5 0 -10 5 -10 10 0 6 5 10 10 10 6 0 10 -4 10 -10z
m97 -9 c1 -14 -3 -17 -18 -14 -15 4 -17 8 -8 19 16 19 24 17 26 -5z m1567 11
c2 -4 -7 -9 -22 -10 -21 -1 -24 0 -12 8 18 12 27 12 34 2z m-1384 -6 c0 -11
-19 -15 -25 -6 -3 5 1 10 9 10 9 0 16 -2 16 -4z m1445 -19 c16 -13 15 -14 -12
-10 -23 4 -36 -1 -53 -19 -24 -24 -18 -5 8 25 18 21 32 21 57 4z m65 3 c0 -5
-2 -10 -4 -10 -3 0 -8 5 -11 10 -3 6 -1 10 4 10 6 0 11 -4 11 -10z m-1813 -22
c-3 -8 -6 -5 -6 6 -1 11 2 17 5 13 3 -3 4 -12 1 -19z m1727 -13 c-6 -16 -24
-21 -24 -7 0 11 11 22 21 22 5 0 6 -7 3 -15z m1020 -67 c-8 -12 -63 52 -63 72
0 9 14 -1 34 -24 19 -21 32 -43 29 -48z m-2270 47 c-4 -9 -16 -21 -28 -27 -19
-10 -19 -9 3 16 28 30 33 32 25 11z m126 -5 c-8 -5 -11 -12 -7 -16 3 -4 12 -2
19 3 19 14 62 -9 46 -25 -15 -15 -41 -16 -32 0 4 7 3 8 -4 4 -7 -4 -12 -15
-12 -25 0 -10 -7 -24 -15 -31 -9 -8 -15 -9 -15 -2 0 6 5 14 10 17 6 3 10 16
10 28 0 20 -2 20 -24 -8 -13 -16 -21 -35 -19 -42 5 -12 -9 -18 -31 -14 -9 2
-26 -18 -26 -31 0 -4 8 -5 18 -1 14 5 14 3 -3 -10 -10 -8 -25 -13 -32 -10 -7
3 -13 1 -13 -5 0 -5 -9 -12 -20 -15 -28 -7 -25 7 5 23 14 7 25 18 25 24 0 12
41 42 53 38 4 -1 7 6 7 17 0 10 7 24 15 31 8 7 15 17 15 23 0 14 32 48 39 42
3 -4 -1 -10 -9 -15z m-411 -17 c-13 -16 -27 -32 -31 -37 -3 -5 -6 -2 -4 5 2
18 37 59 50 59 5 0 -1 -12 -15 -27z m1691 17 c0 -5 -2 -10 -4 -10 -3 0 -8 5
-11 10 -3 6 -1 10 4 10 6 0 11 -4 11 -10z m-1856 -9 c3 -5 -1 -11 -9 -15 -9
-3 -15 0 -15 9 0 16 16 20 24 6z m481 -18 c-1 -26 -21 -73 -30 -73 -2 0 -3 14
-3 30 1 19 6 30 16 30 11 0 12 3 3 14 -9 11 -9 15 1 19 7 3 13 6 14 6 0 1 0
-11 -1 -26z m1081 -9 c1 -13 -2 -24 -7 -24 -5 0 -9 5 -9 11 0 6 -7 8 -16 5 -8
-3 -13 -2 -10 3 3 5 -1 11 -9 15 -27 10 -16 22 18 18 26 -3 32 -8 33 -28z
m1098 6 c21 -24 23 -32 12 -36 -8 -3 -26 2 -40 11 -21 14 -24 21 -15 36 5 10
11 19 13 19 1 0 15 -14 30 -30z m-2134 5 c-7 -8 -16 -15 -21 -15 -5 0 -9 7 -9
15 0 9 9 15 21 15 18 0 19 -2 9 -15z m960 11 c0 -3 -4 -8 -10 -11 -5 -3 -10
-1 -10 4 0 6 5 11 10 11 6 0 10 -2 10 -4z m-1295 -16 c3 -5 1 -10 -4 -10 -6 0
-11 5 -11 10 0 6 2 10 4 10 3 0 8 -4 11 -10z m155 -11 c0 -5 -4 -9 -10 -9 -5
0 -10 7 -10 16 0 8 5 12 10 9 6 -3 10 -10 10 -16z m1303 9 c-2 -5 -3 -14 -3
-20 0 -10 -2 -10 -8 0 -11 17 -45 4 -38 -15 3 -8 2 -11 -3 -8 -5 3 -12 1 -16
-5 -3 -5 -2 -10 4 -10 6 0 8 -7 4 -16 -5 -15 -7 -15 -15 0 -6 10 -3 24 8 42
14 20 15 27 5 33 -7 5 4 8 26 7 21 -1 37 -4 36 -8z m-151 -10 c-9 -9 -9 -15 0
-27 10 -13 10 -14 -1 -4 -7 6 -21 9 -30 6 -13 -5 -13 -2 3 15 11 12 24 22 30
22 6 0 6 -4 -2 -12z m-1066 -25 c-10 -10 -19 5 -10 18 6 11 8 11 12 0 2 -7 1
-15 -2 -18z m-50 -2 c24 20 15 -6 -10 -31 l-25 -23 3 29 c5 38 7 42 13 26 4
-10 8 -10 19 -1z m2373 -15 c8 -13 10 -29 7 -35 -10 -16 -36 -13 -36 4 0 8 -5
15 -10 15 -7 0 -7 6 0 20 14 26 24 25 39 -4z m-1029 7 c-8 -3 -18 -11 -22 -17
-5 -7 -8 -4 -8 7 0 11 7 17 23 16 15 0 17 -2 7 -6z m975 -12 c-3 -5 -1 -12 5
-16 13 -8 13 -35 0 -35 -5 0 -14 10 -21 21 -9 17 -8 23 2 30 18 11 22 11 14 0z
m-2370 -11 c-3 -5 -11 -10 -16 -10 -6 0 -7 5 -4 10 3 6 11 10 16 10 6 0 7 -4
4 -10z m-1383 -22 c-7 -7 -12 -8 -12 -2 0 14 12 26 19 19 2 -3 -1 -11 -7 -17z
m2613 12 c3 -5 1 -10 -4 -10 -6 0 -11 5 -11 10 0 6 2 10 4 10 3 0 8 -4 11 -10z
m99 -9 c3 -5 -1 -11 -9 -14 -9 -4 -12 -1 -8 9 6 16 10 17 17 5z m-1497 -7 c-3
-3 -12 -4 -19 -1 -8 3 -5 6 6 6 11 1 17 -2 13 -5z m221 -7 c18 7 15 -1 -8 -22
-20 -18 -21 -18 -14 0 6 14 4 17 -7 13 -59 -22 -70 -21 -44 6 11 11 22 13 38
7 12 -4 28 -6 35 -4z m1152 -7 c13 -8 13 -10 -2 -10 -9 0 -20 5 -23 10 -8 13
5 13 25 0z m90 0 c0 -5 -2 -10 -4 -10 -3 0 -8 5 -11 10 -3 6 -1 10 4 10 6 0
11 -4 11 -10z m-1035 -10 c4 -6 11 -7 17 -4 6 4 8 2 5 -4 -8 -12 -47 -4 -47 9
0 12 17 11 25 -1z m789 -6 c5 -13 9 -14 21 -4 8 7 21 10 29 7 8 -3 16 -1 18 4
2 6 12 7 26 2 21 -8 21 -10 8 -28 -14 -18 -15 -18 -16 -2 0 24 -48 13 -74 -17
l-19 -21 7 22 c9 28 -11 40 -30 17 -13 -17 -13 -17 -8 -1 5 13 2 16 -10 11 -9
-3 -16 -2 -16 4 0 24 55 29 64 6z m220 -5 c-3 -5 -10 -7 -15 -3 -5 3 -7 10 -3
15 3 5 10 7 15 3 5 -3 7 -10 3 -15z m-301 -9 c-3 -10 -12 -25 -20 -32 -12 -10
-14 -9 -11 8 3 20 19 43 30 44 3 0 4 -9 1 -20z m-1023 -5 c-7 -8 -18 -15 -24
-15 -6 0 -2 7 8 15 25 19 32 19 16 0z m230 0 c-7 -8 -17 -15 -23 -15 -6 0 -2
7 9 15 25 19 30 19 14 0z m1060 -7 c0 -7 -5 -6 -13 1 -8 6 -18 7 -22 3 -5 -4
-5 -2 -1 5 8 14 36 6 36 -9z m-1523 -10 c-3 -8 -6 -5 -6 6 -1 11 2 17 5 13 3
-3 4 -12 1 -19z m595 -13 c-8 -28 -32 -48 -32 -25 0 12 31 62 36 57 2 -2 0
-16 -4 -32z m900 3 c-7 -7 -16 -7 -28 0 -14 8 -13 10 10 10 18 0 24 -4 18 -10z
m-1062 -14 c0 -8 -4 -12 -10 -9 -5 3 -10 10 -10 16 0 5 5 9 10 9 6 0 10 -7 10
-16z m-120 -5 c0 -5 -4 -8 -9 -5 -5 4 -12 0 -14 -6 -3 -8 -6 -6 -6 5 -1 9 6
17 14 17 8 0 15 -5 15 -11z m385 1 c-3 -5 -14 -10 -23 -10 -15 0 -15 2 -2 10
20 13 33 13 25 0z m-293 -40 c-9 -11 -18 -17 -20 -15 -3 3 1 11 7 19 7 8 9 21
5 28 -6 10 -5 10 8 0 15 -12 15 -15 0 -32z m932 25 c3 -8 1 -15 -4 -15 -6 0
-10 7 -10 15 0 8 2 15 4 15 2 0 6 -7 10 -15z m76 11 c0 -2 -7 -6 -15 -10 -8
-3 -15 -1 -15 4 0 6 7 10 15 10 8 0 15 -2 15 -4z m-1213 -22 c2 -6 -4 -14 -13
-18 -12 -4 -15 -2 -10 9 7 20 -4 19 -34 -2 l-25 -17 19 23 c20 22 56 25 63 5z
m730 -4 c-1 -18 -24 -36 -34 -26 -4 3 27 46 34 46 1 0 1 -9 0 -20z m437 4 c3
-8 2 -12 -4 -9 -6 3 -10 10 -10 16 0 14 7 11 14 -7z m113 -6 c-3 -8 -6 -5 -6
6 -1 11 2 17 5 13 3 -3 4 -12 1 -19z m-1231 -14 c-4 -9 -9 -15 -11 -12 -3 3
-3 13 1 22 4 9 9 15 11 12 3 -3 3 -13 -1 -22z m104 16 c0 -5 -5 -10 -11 -10
-5 0 -7 5 -4 10 3 6 8 10 11 10 2 0 4 -4 4 -10z m210 -10 c0 -5 -4 -10 -10
-10 -5 0 -10 -6 -10 -13 0 -8 -6 -14 -14 -14 -12 0 -11 5 2 23 18 25 32 31 32
14z m47 4 c-3 -3 -12 -4 -19 -1 -8 3 -5 6 6 6 11 1 17 -2 13 -5z m59 -13 c0
-11 -5 -17 -13 -14 -7 3 -10 10 -6 16 3 6 1 7 -5 3 -7 -4 -12 -13 -12 -19 0
-7 -9 -18 -20 -25 -26 -16 -25 -8 2 28 25 34 54 40 54 11z m604 9 c0 -5 -4
-10 -10 -10 -5 0 -10 5 -10 10 0 6 5 10 10 10 6 0 10 -4 10 -10z m-575 -10 c3
-5 1 -10 -4 -10 -6 0 -11 5 -11 10 0 6 2 10 4 10 3 0 8 -4 11 -10z m420 -8
c-3 -3 -11 0 -18 7 -9 10 -8 11 6 5 10 -3 15 -9 12 -12z m115 8 c0 -5 -2 -10
-4 -10 -3 0 -8 5 -11 10 -3 6 -1 10 4 10 6 0 11 -4 11 -10z m-760 -4 c0 -3 -4
-8 -10 -11 -5 -3 -10 -1 -10 4 0 6 5 11 10 11 6 0 10 -2 10 -4z m317 -21 c-15
-16 -19 -13 -11 9 3 9 10 13 15 10 5 -3 3 -11 -4 -19z m293 16 c0 -5 -9 -11
-20 -14 -12 -3 -20 0 -20 7 0 6 9 12 20 13 11 1 20 -2 20 -6z m100 -7 c0 -11
-6 -13 -19 -9 -13 4 -24 -1 -34 -15 -9 -14 -17 -17 -22 -11 -3 6 -1 11 6 11 7
0 9 3 5 7 -6 6 22 20 62 32 1 1 2 -6 2 -15z m-319 -17 c-13 -13 -26 -3 -16 12
3 6 11 8 17 5 6 -4 6 -10 -1 -17z m89 3 c-5 -11 -15 -30 -21 -41 -8 -17 -8
-24 3 -30 9 -6 9 -9 1 -9 -19 0 -26 20 -12 36 6 8 9 17 6 21 -8 8 11 43 23 43
7 0 7 -7 0 -20z m80 16 c0 -3 -4 -8 -10 -11 -5 -3 -10 -1 -10 4 0 6 5 11 10
11 6 0 10 -2 10 -4z m275 -16 c3 -5 1 -10 -4 -10 -6 0 -11 5 -11 10 0 6 2 10
4 10 3 0 8 -4 11 -10z m32 -12 c-3 -8 -6 -5 -6 6 -1 11 2 17 5 13 3 -3 4 -12
1 -19z m-787 -1 c0 -2 -9 -12 -19 -21 -19 -17 -19 -17 -14 3 3 12 12 21 19 21
8 0 14 -2 14 -3z m143 -4 c-7 -2 -19 -2 -25 0 -7 3 -2 5 12 5 14 0 19 -2 13
-5z m336 -15 c-9 -16 -14 -19 -17 -9 -2 7 2 17 9 22 20 13 21 11 8 -13z m-434
-8 c3 -5 1 -10 -4 -10 -6 0 -11 5 -11 10 0 6 2 10 4 10 3 0 8 -4 11 -10z m185
-4 c0 -26 -12 -46 -27 -46 -8 0 -11 -5 -7 -12 4 -7 3 -8 -4 -4 -18 11 -15 36
3 30 14 -6 19 5 16 34 -1 6 3 12 9 12 5 0 10 -6 10 -14z m79 -18 c-5 -18 -9
-34 -9 -36 0 -2 -4 0 -10 3 -6 4 -4 17 5 36 20 38 26 37 14 -3z m228 26 c-3
-3 -12 -4 -19 -1 -8 3 -5 6 6 6 11 1 17 -2 13 -5z m-532 -23 c-3 -6 -11 -11
-16 -11 -5 0 -4 6 3 14 14 16 24 13 13 -3z m431 8 c3 -6 -2 -18 -12 -27 -17
-16 -17 -16 -4 1 12 16 12 20 -1 28 -9 5 -10 9 -2 9 6 0 15 -5 19 -11z m-396
-19 c0 -5 -7 -10 -16 -10 -8 0 -12 5 -9 10 3 6 10 10 16 10 5 0 9 -4 9 -10z
m440 6 c0 -3 -4 -8 -10 -11 -5 -3 -10 -1 -10 4 0 6 5 11 10 11 6 0 10 -2 10
-4z m-537 -45 c-10 -17 -21 -31 -26 -31 -4 0 3 15 15 34 28 42 35 40 11 -3z
m702 29 c3 -6 -1 -7 -9 -4 -18 7 -21 14 -7 14 6 0 13 -4 16 -10z m-615 -14 c0
-3 -4 -8 -10 -11 -5 -3 -10 -1 -10 4 0 6 5 11 10 11 6 0 10 -2 10 -4z m-240
-20 c0 -2 -7 -7 -16 -10 -8 -3 -12 -2 -9 4 6 10 25 14 25 6z m364 -4 c3 -5 -1
-9 -9 -9 -8 0 -15 4 -15 9 0 4 4 8 9 8 6 0 12 -4 15 -8z m262 -30 c-4 -3 -14
2 -24 12 -16 18 -16 18 6 6 13 -6 21 -14 18 -18z m127 13 c4 -8 1 -17 -5 -21
-7 -4 -8 -3 -4 4 5 8 -1 12 -16 12 -18 0 -20 2 -8 10 21 13 27 12 33 -5z
m-528 -15 c3 -5 1 -10 -4 -10 -6 0 -11 5 -11 10 0 6 2 10 4 10 3 0 8 -4 11
-10z m175 0 c0 -5 -5 -10 -11 -10 -5 0 -7 5 -4 10 3 6 8 10 11 10 2 0 4 -4 4
-10z m170 -5 c-7 -8 -18 -15 -24 -15 -6 0 -2 7 8 15 25 19 32 19 16 0z m-270
-29 c0 -3 -4 -8 -10 -11 -5 -3 -10 -1 -10 4 0 6 5 11 10 11 6 0 10 -2 10 -4z
m-925 -26 c-3 -5 -11 -10 -16 -10 -6 0 -7 5 -4 10 3 6 11 10 16 10 6 0 7 -4 4
-10z m1127 -22 c-8 -8 -9 -4 -5 13 4 13 8 18 11 10 2 -7 -1 -18 -6 -23z m-302
8 c0 -2 -7 -7 -16 -10 -8 -3 -12 -2 -9 4 6 10 25 14 25 6z m-840 -60 c0 -9 -9
-14 -20 -13 -25 2 -26 14 -2 20 9 3 18 5 20 6 1 0 2 -5 2 -13z m1391 -21 c378
-70 701 -313 868 -652 82 -168 113 -299 117 -498 8 -364 -128 -655 -415 -892
-18 -15 -43 -36 -54 -46 -11 -9 -26 -17 -34 -17 -7 0 -13 -3 -13 -8 0 -8 -10
-13 -76 -47 -21 -10 -46 -25 -54 -31 -18 -14 -212 -81 -255 -88 -16 -2 -30 -5
-30 -6 0 -3 -38 -9 -105 -16 -83 -10 -281 -8 -289 3 -3 4 -19 8 -36 9 -48 2
-103 12 -123 23 -11 6 -34 13 -53 16 -32 6 -175 72 -245 113 -36 21 -126 85
-151 107 -57 51 -122 115 -146 146 -72 92 -117 155 -117 166 0 6 -4 13 -8 15
-31 12 -152 356 -143 407 1 7 -2 10 -9 6 -7 -4 -9 -21 -5 -43 3 -21 10 -64 15
-97 5 -33 23 -99 39 -148 16 -48 27 -87 24 -87 -3 0 0 -7 7 -15 7 -8 10 -15 6
-15 -10 0 57 -160 90 -211 5 -8 9 -16 9 -19 1 -6 50 -85 76 -122 10 -15 19
-30 19 -33 0 -6 27 -38 77 -92 12 -12 19 -23 16 -23 -4 0 0 -6 9 -12 9 -7 33
-33 52 -56 20 -24 36 -42 36 -39 0 12 80 -70 81 -83 0 -10 2 -11 6 -2 2 6 9
12 15 12 6 0 7 -7 4 -16 -4 -11 1 -18 14 -21 11 -3 18 -9 15 -13 -5 -8 22 -22
33 -17 4 2 17 -7 29 -20 12 -13 18 -23 13 -23 -6 0 -5 -8 2 -19 7 -11 15 -19
18 -18 3 1 23 -4 43 -12 24 -10 37 -21 37 -33 0 -10 7 -18 17 -18 10 0 28 -12
41 -27 21 -24 25 -26 45 -14 18 11 20 11 10 0 -16 -17 -18 -48 -2 -32 12 12
49 5 49 -9 0 -6 13 -8 30 -4 17 3 30 1 30 -4 0 -6 -7 -10 -16 -10 -8 0 -12 -5
-9 -10 3 -6 22 -8 41 -6 19 3 34 1 34 -3 0 -4 9 -7 19 -7 11 0 17 4 15 8 -3 4
-1 8 3 8 5 0 14 -9 21 -20 7 -11 17 -20 23 -20 5 0 7 5 3 11 -4 7 1 7 16 -1
12 -6 28 -9 35 -6 8 3 17 1 20 -5 4 -5 11 -7 16 -3 5 3 6 10 3 16 -4 6 2 6 15
-1 17 -10 20 -9 15 4 -4 8 -1 15 5 15 6 0 11 -6 11 -13 0 -7 9 -13 19 -13 11
0 17 4 15 8 -5 7 34 13 64 9 6 -1 12 3 12 9 0 6 5 8 11 5 5 -4 18 3 28 14 23
26 51 30 30 4 -13 -15 -12 -15 6 -5 11 5 35 25 54 44 19 18 31 27 27 21 -5 -9
0 -13 13 -13 12 0 21 7 21 15 0 8 5 15 11 15 6 0 28 18 49 40 37 40 60 50 60
29 0 -7 16 8 34 33 19 25 42 48 50 51 9 4 16 13 16 22 0 8 7 15 16 15 18 0 33
13 58 52 10 16 23 28 29 28 6 0 55 46 110 103 127 131 127 132 127 145 0 5 4
12 8 14 14 5 67 90 111 178 48 93 82 188 96 265 2 11 6 31 9 45 4 14 8 52 10
85 2 33 10 103 16 155 36 278 -38 595 -193 825 -71 106 -167 214 -190 215 -5
0 -5 5 -2 10 7 12 1339 12 1425 0 30 -4 49 -8 41 -9 -8 0 -11 -4 -8 -8 4 -3 0
-11 -8 -17 -16 -11 -27 -119 -12 -109 4 2 7 0 7 -6 0 -5 -5 -13 -10 -16 -7 -4
-7 -12 0 -25 6 -12 7 -21 0 -25 -6 -4 -6 -15 1 -33 7 -18 7 -28 0 -30 -6 -2
-7 -12 -1 -28 7 -17 6 -24 -2 -24 -6 0 -9 -3 -6 -6 4 -3 2 -18 -2 -34 -6 -20
-4 -31 3 -34 9 -5 9 -8 0 -12 -8 -3 -10 -12 -5 -22 8 -16 7 -69 -2 -202 -2
-30 0 -60 6 -67 6 -7 5 -14 -2 -18 -14 -8 -13 -75 1 -75 8 0 8 -5 -1 -15 -7
-8 -10 -22 -6 -31 3 -8 1 -24 -4 -35 -8 -14 -7 -19 2 -20 10 0 10 -2 1 -6 -9
-3 -10 -10 -3 -22 5 -10 6 -21 3 -25 -9 -9 -11 -46 -3 -46 8 0 5 -44 -4 -59
-4 -5 -2 -13 4 -16 7 -4 7 -11 2 -18 -5 -7 -12 -20 -15 -29 -4 -13 -2 -15 10
-11 13 5 13 2 -2 -20 -9 -15 -13 -27 -9 -27 10 0 11 -57 2 -66 -4 -3 -4 -19
-1 -35 3 -19 0 -29 -9 -29 -11 0 -11 -2 0 -8 10 -7 10 -15 2 -36 -6 -17 -6
-25 0 -21 6 4 8 -10 6 -35 -2 -23 0 -40 6 -40 6 0 2 -12 -7 -27 -12 -18 -14
-28 -7 -31 8 -2 7 -12 -3 -33 -14 -25 -14 -28 0 -23 8 4 15 1 15 -5 0 -6 -4
-11 -9 -11 -5 0 -11 -9 -14 -19 -3 -13 0 -18 8 -15 12 5 12 3 1 -88 -2 -21 0
-38 5 -38 6 0 4 -9 -4 -21 -8 -11 -12 -29 -9 -41 3 -11 -1 -24 -9 -29 -11 -7
-10 -9 5 -9 15 0 17 -3 9 -11 -14 -14 -5 -41 11 -32 6 3 3 -3 -6 -14 -20 -22
-24 -48 -6 -37 13 8 3 -12 -20 -38 -14 -16 -13 -18 3 -18 13 0 15 -3 7 -12
-12 -16 -13 -71 0 -79 5 -4 3 -13 -6 -22 -19 -18 -21 -37 -5 -37 8 0 7 -6 -2
-17 -11 -13 -12 -17 -1 -21 10 -3 9 -10 -4 -29 -12 -19 -13 -27 -4 -33 9 -6 9
-9 1 -15 -9 -5 -9 -10 0 -21 9 -11 8 -18 -5 -32 -21 -24 -21 -36 1 -28 15 6
15 5 -1 -12 -15 -17 -20 -36 -25 -90 0 -7 -5 -11 -10 -8 -5 3 -11 -1 -14 -9
-4 -9 -1 -12 9 -8 22 8 17 -5 -12 -32 -21 -19 -23 -25 -10 -25 9 0 16 -4 16
-10 0 -5 -7 -6 -17 -3 -11 4 -14 3 -9 -6 5 -8 -3 -24 -20 -42 -21 -22 -24 -29
-12 -29 9 0 19 6 21 13 3 6 6 8 6 2 0 -5 -33 -46 -73 -90 -41 -44 -72 -82 -70
-84 2 -3 14 5 27 17 13 12 27 22 32 22 12 0 -114 -128 -140 -142 l-20 -11 20
24 c11 13 29 32 40 42 20 18 19 18 -7 1 -16 -9 -28 -20 -28 -25 0 -5 -5 -9
-11 -9 -7 0 -21 -10 -33 -22 -11 -13 -36 -36 -55 -53 -33 -30 -33 -30 -26 -5
7 23 5 22 -34 -13 -42 -37 -64 -50 -41 -22 21 26 -4 16 -43 -16 -20 -17 -37
-26 -37 -20 0 5 8 14 17 20 10 5 15 12 12 15 -3 4 -17 -3 -32 -14 -31 -25 -38
-25 -30 -3 5 12 -7 7 -35 -15 -29 -23 -40 -28 -35 -16 6 16 2 15 -30 -5 -33
-20 -36 -21 -30 -4 7 17 6 17 -20 0 -30 -19 -41 -22 -32 -7 9 15 -17 8 -35 -9
-13 -13 -15 -12 -18 3 -3 13 -7 15 -18 6 -17 -15 -73 -19 -77 -7 -2 6 -15 2
-30 -8 -26 -17 -27 -17 -20 1 7 18 6 18 -20 1 -15 -9 -27 -14 -27 -9 0 11 -69
12 -75 1 -3 -4 -12 -6 -20 -3 -7 3 -23 0 -35 -6 -15 -8 -20 -8 -16 -1 11 17
-20 13 -34 -4 -7 -8 -17 -15 -22 -15 -6 0 -4 7 3 17 13 14 10 14 -20 -1 -30
-16 -33 -16 -28 -2 8 20 -7 21 -23 1 -10 -12 -15 -13 -20 -4 -6 8 -13 8 -28 0
-15 -8 -23 -8 -27 0 -5 7 -15 4 -32 -6 -14 -10 -23 -12 -19 -7 10 17 -11 23
-24 7 -7 -8 -17 -15 -22 -15 -6 0 -5 7 2 15 17 20 0 19 -30 -2 -22 -16 -23
-16 -17 0 7 18 -8 24 -18 7 -3 -5 -11 -10 -16 -10 -6 0 -7 4 -4 10 4 7 -2 7
-19 0 -17 -6 -27 -6 -32 1 -4 6 -11 6 -20 -2 -10 -8 -14 -8 -14 -1 0 14 -28 5
-52 -16 -13 -11 -18 -12 -18 -2 0 7 -8 10 -20 7 -10 -3 -19 -2 -18 2 2 19 -4
22 -18 10 -18 -15 -64 -19 -64 -6 0 5 -8 6 -17 2 -26 -11 -77 -11 -85 0 -4 5
-16 1 -29 -10 -12 -11 -19 -14 -15 -7 4 7 2 12 -6 13 -15 2 -16 1 -58 -6 -20
-4 -29 -2 -25 5 4 6 -4 6 -22 -1 -43 -17 -85 -18 -79 -2 4 10 1 10 -15 0 -16
-10 -21 -9 -29 3 -5 8 -10 10 -10 4 0 -16 -38 -25 -43 -10 -3 8 -9 7 -21 -3
-14 -12 -19 -12 -26 -2 -4 8 -13 10 -21 6 -7 -5 -25 -9 -41 -10 -25 -2 -27 -1
-16 14 11 14 11 14 -2 5 -23 -18 -64 -28 -56 -15 9 14 0 14 -25 1 -13 -8 -19
-7 -19 0 0 7 -6 8 -18 1 -11 -6 -24 -6 -32 -1 -9 5 -20 4 -29 -3 -12 -9 -13
-9 -7 1 10 16 -16 16 -33 -1 -11 -10 -14 -9 -18 1 -4 10 -8 10 -20 1 -12 -10
-16 -10 -24 2 -8 12 -10 12 -20 -1 -8 -11 -12 -12 -15 -3 -4 9 -13 9 -31 2
-21 -8 -24 -7 -19 6 6 17 -9 21 -19 5 -7 -12 -65 -14 -65 -2 0 5 -7 9 -15 9
-8 0 -15 -4 -15 -8 0 -4 -16 -7 -35 -7 -19 0 -32 4 -29 9 6 10 -25 0 -43 -14
-9 -6 -13 -6 -13 2 0 8 -5 9 -19 1 -24 -12 -34 -13 -27 -1 7 10 -13 9 -29 -1
-6 -4 -17 -3 -25 3 -13 7 -13 9 -1 9 8 0 11 3 8 6 -4 4 -12 3 -19 -2 -19 -14
-72 -18 -64 -5 4 6 1 11 -8 11 -8 0 -17 -6 -19 -12 -4 -10 -8 -9 -16 2 -8 12
-12 12 -29 -3 -21 -19 -43 -24 -24 -5 7 7 12 16 12 21 0 5 -7 1 -16 -7 -17
-18 -39 -22 -29 -6 9 14 -19 12 -33 -2 -9 -9 -15 -9 -24 0 -8 8 -15 9 -25 0
-11 -9 -12 -7 -6 8 6 17 5 17 -10 5 -9 -7 -17 -10 -17 -6 0 4 -8 1 -17 -6 -10
-8 -14 -9 -10 -2 4 6 3 14 -2 17 -5 4 -12 2 -15 -3 -7 -11 -96 -4 -112 10 -8
7 -14 6 -17 -3 -4 -10 -7 -10 -15 1 -7 10 -14 11 -31 2 -17 -10 -20 -9 -14 5
5 14 3 15 -17 4 -20 -11 -22 -10 -17 4 7 19 3 20 -25 5 -18 -10 -20 -9 -15 5
7 18 -4 21 -20 5 -8 -8 -13 -8 -17 0 -4 6 -2 11 5 11 7 0 10 3 7 6 -4 3 -15 1
-27 -5 -12 -7 -22 -7 -26 -1 -3 5 -12 7 -20 3 -8 -3 -15 0 -15 6 0 6 -7 8 -15
5 -9 -4 -18 1 -21 11 -5 13 -9 14 -15 3 -7 -10 -9 -10 -9 0 0 6 -6 12 -13 12
-7 0 -22 8 -33 19 -16 14 -25 16 -38 9 -15 -9 -17 -7 -11 11 5 16 3 20 -8 15
-8 -3 -18 -1 -21 5 -4 6 -14 7 -24 4 -15 -6 -15 -5 -3 10 11 14 11 17 -1 17
-8 0 -19 -5 -26 -12 -16 -16 -16 4 1 21 10 12 9 13 -7 7 -13 -4 -17 -2 -13 8
3 8 -2 16 -15 19 -11 3 -17 10 -13 16 3 7 0 8 -10 5 -11 -5 -14 -2 -8 12 5 13
3 16 -10 11 -11 -4 -17 -1 -17 7 0 7 -11 19 -25 26 -13 7 -22 16 -20 20 2 4
-5 17 -16 29 -11 12 -17 25 -14 30 3 5 -6 18 -20 29 -15 12 -21 23 -15 27 6 3
8 11 4 16 -3 5 -10 7 -15 4 -5 -3 -6 2 -2 11 4 12 3 15 -5 10 -8 -5 -12 0 -12
13 0 12 -5 21 -11 21 -6 0 -9 9 -6 20 3 11 1 20 -5 20 -6 0 -8 7 -5 15 4 8 2
17 -3 20 -4 3 -10 -1 -13 -7 -3 -7 -3 5 -1 26 1 22 0 45 -4 50 -4 6 -8 20 -9
31 -8 62 -11 90 -13 90 -1 0 -3 15 -5 33 -2 19 -6 40 -9 47 -2 7 -1 30 4 51 6
27 5 41 -3 46 -9 5 -9 10 1 20 14 14 17 32 4 24 -5 -3 -9 13 -10 35 -1 23 -4
45 -8 50 -3 5 0 9 5 9 6 0 11 7 11 15 0 8 -5 15 -10 15 -12 0 -9 22 5 33 6 6
5 10 -3 14 -10 4 -10 8 -1 19 7 8 9 17 5 21 -3 3 -6 1 -6 -6 0 -7 -5 -9 -11
-6 -7 5 -5 15 5 31 18 27 20 38 6 29 -7 -4 -9 3 -6 19 3 15 1 24 -5 21 -11 -8
-12 11 0 52 7 23 6 33 -2 36 -9 3 -8 8 2 20 12 15 9 21 -11 18 -9 -1 -1 66 12
88 5 10 7 21 4 24 -3 3 -6 22 -6 41 0 24 -4 34 -11 29 -9 -5 -9 -3 -1 8 6 8
14 22 18 33 5 14 2 17 -9 12 -9 -3 -15 0 -15 10 0 8 3 13 8 10 4 -2 7 13 7 35
0 21 -3 39 -8 39 -4 0 -3 8 2 19 6 10 7 21 4 25 -12 11 -13 45 -3 51 6 4 7 13
1 23 -4 9 -7 51 -6 92 1 41 -1 80 -6 85 -9 12 -6 71 4 81 9 10 9 26 -1 21 -4
-3 -6 23 -5 56 2 65 2 134 1 177 -1 14 0 52 1 85 1 73 -2 106 -12 122 -4 6 -3
14 2 17 5 4 8 30 7 59 -2 28 2 58 8 66 8 11 8 13 0 8 -16 -9 -24 38 -10 54 8
8 8 13 -1 16 -8 3 -9 12 -3 28 6 16 5 25 -3 29 -9 3 -9 7 2 14 10 7 10 14 2
30 -8 15 -8 22 2 26 9 5 9 7 -1 12 -6 3 -9 11 -5 17 9 15 11 67 3 62 -10 -6
-31 20 -23 28 3 4 0 8 -8 8 -34 4 105 17 185 18 80 1 87 -1 81 -16 -30 -74 -9
-167 54 -236 68 -75 75 -77 436 -77 178 0 336 4 355 10 48 13 106 63 132 113
24 45 32 162 13 175 -6 4 -21 25 -34 46 -14 24 -17 35 -7 27 8 -7 18 -20 20
-29 5 -15 22 -17 135 -15 l130 2 58 47 c146 119 303 192 501 234 112 24 318
26 433 5z m-1421 -9 c0 -3 -4 -8 -10 -11 -5 -3 -10 -1 -10 4 0 6 5 11 10 11 6
0 10 -2 10 -4z m-596 -235 c3 -4 -1 -17 -9 -27 -9 -12 -14 -43 -15 -81 0 -61
1 -63 25 -63 22 0 25 4 25 33 0 18 -5 38 -11 44 -19 19 -2 43 30 43 16 0 33
-5 37 -11 4 -8 9 -8 17 0 16 16 58 13 79 -6 12 -11 18 -30 18 -59 0 -24 5 -46
10 -49 6 -3 10 1 10 9 0 20 4 20 46 0 19 -9 38 -14 41 -10 7 7 10 5 -42 31
-83 41 -46 97 60 92 52 -3 63 0 82 20 27 29 63 32 56 4 -3 -12 2 -20 16 -24
14 -3 18 -10 14 -26 -3 -12 -12 -21 -20 -21 -10 0 -13 -10 -11 -37 2 -24 8
-37 16 -35 7 1 12 -8 12 -23 0 -22 -4 -25 -33 -25 -44 0 -57 15 -58 70 -1 54
-12 89 -23 72 -4 -7 -5 -16 -1 -21 10 -18 -11 -20 -43 -4 -18 9 -35 13 -39 9
-3 -3 -4 -7 -2 -8 2 -2 22 -12 44 -23 45 -23 55 -48 29 -76 -18 -20 -69 -26
-79 -9 -4 6 -13 5 -26 -3 -17 -10 -22 -9 -35 7 -12 17 -14 18 -14 3 0 -13 -9
-17 -40 -17 -38 0 -40 1 -41 33 -1 17 0 45 1 60 1 23 -2 28 -17 25 -24 -4 -32
-68 -8 -68 11 0 15 -7 13 -22 -2 -19 -10 -24 -46 -26 -33 -2 -47 1 -58 15 -12
17 -13 17 -14 1 0 -15 -9 -18 -55 -18 -51 0 -55 2 -55 24 0 13 4 26 9 28 15 5
17 131 3 136 -7 2 -12 12 -12 23 0 16 7 19 54 19 30 0 57 -4 60 -9z m647 -67
c13 -12 19 -31 19 -61 0 -23 5 -43 10 -43 6 0 10 -12 10 -26 0 -25 -2 -26 -42
-22 -24 3 -53 1 -66 -4 -24 -8 -60 4 -74 26 -26 38 11 86 65 86 17 0 26 4 22
11 -4 6 -22 8 -46 4 -35 -6 -39 -4 -39 13 0 41 101 52 141 16z"/>
<path d="M1326 4643 c-6 -14 -5 -15 5 -6 7 7 10 15 7 18 -3 3 -9 -2 -12 -12z"/>
<path d="M1350 4165 c0 -8 2 -15 4 -15 2 0 6 7 10 15 3 8 1 15 -4 15 -6 0 -10
-7 -10 -15z"/>
<path d="M1241 4083 c0 -25 1 -26 9 -8 12 27 12 35 0 35 -5 0 -10 -12 -9 -27z"/>
<path d="M1305 4060 c-3 -5 -1 -10 4 -10 6 0 11 5 11 10 0 6 -2 10 -4 10 -3 0
-8 -4 -11 -10z"/>
<path d="M1315 4033 l-20 -16 20 8 c11 4 28 8 37 9 9 0 14 4 12 8 -8 12 -27 9
-49 -9z"/>
<path d="M1305 3990 c-4 -6 -10 -8 -15 -5 -5 3 -11 1 -14 -4 -4 -5 -2 -12 3
-15 5 -4 12 -2 16 3 3 6 12 8 19 5 7 -3 16 2 19 10 7 18 -18 23 -28 6z"/>
<path d="M1372 3989 c2 -6 8 -10 13 -10 5 0 11 4 13 10 2 6 -4 11 -13 11 -9 0
-15 -5 -13 -11z"/>
<path d="M1280 3950 c-15 -5 -18 -8 -8 -9 9 -1 18 -9 20 -18 3 -13 6 -10 10
10 3 15 5 27 4 26 0 -1 -12 -5 -26 -9z"/>
<path d="M1364 3949 c-4 -8 -3 -9 4 -5 19 11 14 -5 -5 -20 -16 -12 -16 -12 5
-7 12 3 22 11 22 19 0 18 -17 27 -26 13z"/>
<path d="M1401 3944 c0 -11 3 -14 6 -6 3 7 2 16 -1 19 -3 4 -6 -2 -5 -13z"/>
<path d="M1385 3870 c-3 -5 -1 -10 4 -10 6 0 11 5 11 10 0 6 -2 10 -4 10 -3 0
-8 -4 -11 -10z"/>
<path d="M805 3610 c-8 -13 15 -13 35 0 12 8 11 10 -7 10 -12 0 -25 -4 -28
-10z"/>
<path d="M900 3610 c-8 -5 -10 -10 -5 -10 6 0 17 5 25 10 8 5 11 10 5 10 -5 0
-17 -5 -25 -10z"/>
<path d="M946 3611 c-3 -4 6 -8 20 -9 13 -1 24 0 24 2 0 7 -40 14 -44 7z"/>
<path d="M2589 4640 c-6 -16 -5 -50 2 -50 13 0 17 14 8 35 -4 11 -8 18 -10 15z"/>
<path d="M2253 4613 c-28 -11 -10 -23 33 -23 32 0 44 4 42 12 -5 13 -53 20
-75 11z"/>
<path d="M2729 4607 c11 -14 11 -20 0 -34 -12 -14 -10 -14 14 2 15 10 26 19
25 20 -2 1 -14 8 -28 15 -23 12 -24 12 -11 -3z"/>
<path d="M2790 4594 c0 -5 -16 -18 -35 -28 -42 -23 -41 -30 3 -14 30 12 49 35
37 46 -3 3 -5 1 -5 -4z"/>
<path d="M2705 4579 c-4 -6 -5 -12 -2 -15 2 -3 7 2 10 11 7 17 1 20 -8 4z"/>
<path d="M2259 4544 c-23 -25 -23 -26 -2 -13 13 7 25 19 27 26 8 19 2 16 -25
-13z"/>
<path d="M2650 4556 c7 -7 13 -7 20 0 6 6 3 10 -10 10 -13 0 -16 -4 -10 -10z"/>
<path d="M3005 4562 c-12 -8 -16 -42 -5 -42 4 0 10 11 12 25 3 14 5 25 4 25 0
0 -5 -4 -11 -8z"/>
<path d="M2514 4552 c4 -7 2 -20 -5 -28 -6 -8 -9 -17 -6 -20 3 -3 11 4 17 16
9 17 9 25 -1 34 -9 8 -10 8 -5 -2z"/>
<path d="M2108 4530 c-9 -10 -14 -21 -11 -23 8 -9 -18 -48 -28 -42 -5 4 -7 11
-4 16 4 5 2 9 -3 9 -13 0 -62 -47 -62 -60 0 -5 -3 -9 -7 -8 -5 2 -19 -5 -33
-15 -13 -9 -20 -17 -15 -17 5 0 1 -6 -8 -12 -12 -10 -14 -17 -6 -28 8 -12 12
-12 16 -2 3 7 16 17 29 22 15 6 22 15 18 25 -4 8 1 17 10 21 9 3 14 10 11 14
-3 5 -1 11 5 15 5 3 10 -1 10 -9 0 -8 -4 -18 -10 -21 -5 -3 -10 -12 -10 -20 0
-9 12 -12 41 -10 53 4 62 14 44 48 -7 15 -10 27 -6 27 6 0 24 31 49 83 7 14
-13 5 -30 -13z m-51 -67 c-4 -3 2 -12 13 -20 11 -8 17 -20 13 -29 -4 -10 -9
-12 -18 -4 -6 5 -14 8 -17 5 -2 -3 -5 9 -5 25 0 17 5 30 10 30 6 0 7 -3 4 -7z"/>
<path d="M2295 4540 c-3 -5 1 -10 9 -10 9 0 16 5 16 10 0 6 -4 10 -9 10 -6 0
-13 -4 -16 -10z"/>
<path d="M2165 4530 c-3 -5 -1 -10 4 -10 6 0 11 5 11 10 0 6 -2 10 -4 10 -3 0
-8 -4 -11 -10z"/>
<path d="M2397 4533 c-4 -3 -7 -11 -7 -17 0 -6 5 -5 12 2 6 6 9 14 7 17 -3 3
-9 2 -12 -2z"/>
<path d="M2640 4520 c-17 -13 -20 -20 -10 -20 8 0 21 9 28 20 15 25 13 25 -18
0z"/>
<path d="M2358 4523 c7 -3 16 -2 19 1 4 3 -2 6 -13 5 -11 0 -14 -3 -6 -6z"/>
<path d="M2955 4520 c3 -5 8 -10 11 -10 2 0 4 5 4 10 0 6 -5 10 -11 10 -5 0
-7 -4 -4 -10z"/>
<path d="M2188 4504 c-3 -14 1 -25 13 -33 15 -9 19 -8 19 3 0 8 6 17 13 20 6
4 2 4 -10 2 -14 -2 -23 2 -25 13 -3 12 -5 11 -10 -5z"/>
<path d="M2136 4502 c-2 -4 4 -8 15 -8 10 0 19 4 19 8 0 4 -6 8 -14 8 -8 0
-17 -4 -20 -8z"/>
<path d="M2587 4499 c7 -7 15 -10 18 -7 3 3 -2 9 -12 12 -14 6 -15 5 -6 -5z"/>
<path d="M2676 4498 c3 -5 10 -6 15 -3 13 9 11 12 -6 12 -8 0 -12 -4 -9 -9z"/>
<path d="M3148 4502 c7 -5 10 -16 6 -25 -3 -9 -2 -17 4 -17 5 0 12 6 15 14 6
15 -11 36 -27 36 -6 0 -5 -4 2 -8z"/>
<path d="M2253 4483 c-3 -10 -8 -22 -11 -28 -3 -5 4 -1 16 9 24 20 28 36 12
36 -6 0 -13 -8 -17 -17z"/>
<path d="M2810 4485 c-7 -8 -8 -15 -2 -15 5 0 15 7 22 15 7 8 8 15 2 15 -5 0
-15 -7 -22 -15z"/>
<path d="M2939 4491 c7 -5 11 -13 7 -19 -3 -6 -2 -13 4 -17 5 -3 10 -2 10 4 0
5 3 16 6 25 5 12 0 16 -17 16 -18 0 -20 -3 -10 -9z"/>
<path d="M2129 4461 c10 -7 11 -13 2 -30 -7 -11 -10 -21 -9 -22 2 0 17 -2 33
-4 17 -2 23 -1 13 1 -9 3 -19 12 -22 20 -3 9 -1 12 4 9 6 -3 15 -3 21 0 12 8
-19 34 -41 35 -12 0 -12 -2 -1 -9z"/>
<path d="M2504 4444 c-18 -14 -18 -15 4 -4 12 6 22 13 22 15 0 8 -5 6 -26 -11z"/>
<path d="M2905 4449 c-4 -5 1 -19 10 -29 16 -17 16 -20 2 -25 -9 -4 -13 -14
-10 -26 4 -13 0 -19 -10 -19 -9 0 -19 -5 -23 -12 -4 -7 -3 -8 4 -4 7 4 12 2
12 -3 0 -6 5 -11 10 -11 6 0 9 3 8 8 0 4 7 24 16 45 16 37 16 40 -1 53 -16 12
-16 15 -3 24 9 6 10 10 3 10 -6 0 -15 -5 -18 -11z"/>
<path d="M2860 4436 c7 -7 14 -6 21 1 9 9 7 12 -9 10 -14 -1 -18 -5 -12 -11z"/>
<path d="M2196 4432 c-2 -4 -1 -14 5 -22 7 -12 9 -10 9 8 0 23 -5 28 -14 14z"/>
<path d="M2296 4413 c-38 -37 -24 -41 16 -4 18 17 28 31 22 31 -6 0 -23 -12
-38 -27z"/>
<path d="M2413 4408 c-11 -12 -12 -18 -4 -18 7 0 9 -4 6 -10 -3 -5 -1 -10 4
-10 6 0 11 7 11 15 0 8 6 15 14 15 7 0 18 6 24 13 17 20 -37 15 -55 -5z"/>
<path d="M2816 4422 c-3 -6 -1 -14 5 -17 15 -10 25 3 12 16 -7 7 -13 7 -17 1z"/>
<path d="M2630 4410 c0 -5 5 -10 10 -10 6 0 10 5 10 10 0 6 -4 10 -10 10 -5 0
-10 -4 -10 -10z"/>
<path d="M3010 4391 c0 -39 30 -43 54 -6 12 18 13 25 4 25 -7 0 -23 3 -35 6
-20 6 -23 3 -23 -25z m31 -14 c-10 -9 -11 -8 -5 6 3 10 9 15 12 12 3 -3 0 -11
-7 -18z"/>
<path d="M3100 4400 c0 -14 7 -20 22 -20 20 0 21 1 3 20 -10 11 -20 20 -22 20
-1 0 -3 -9 -3 -20z"/>
<path d="M2235 4399 c-4 -6 -5 -13 -2 -16 7 -7 27 6 27 18 0 12 -17 12 -25 -2z"/>
<path d="M2580 4389 c0 -5 5 -7 10 -4 6 3 10 8 10 11 0 2 -4 4 -10 4 -5 0 -10
-5 -10 -11z"/>
<path d="M2955 4390 c3 -5 1 -10 -4 -10 -6 0 -11 -5 -11 -11 0 -8 4 -8 14 0 7
6 21 9 30 5 12 -5 15 -2 10 10 -3 9 -15 16 -26 16 -10 0 -16 -4 -13 -10z"/>
<path d="M2450 4370 c-13 -8 -13 -10 2 -10 9 0 20 5 23 10 8 13 -5 13 -25 0z"/>
<path d="M2495 4370 c-3 -5 -1 -10 4 -10 6 0 11 5 11 10 0 6 -2 10 -4 10 -3 0
-8 -4 -11 -10z"/>
<path d="M2530 4371 c0 -10 19 -25 25 -20 1 2 -3 10 -11 17 -8 7 -14 8 -14 3z"/>
<path d="M3076 4372 c-3 -6 1 -13 10 -16 23 -9 28 -2 10 13 -8 7 -17 8 -20 3z"/>
<path d="M2360 4361 c0 -6 4 -12 8 -15 5 -3 9 1 9 9 0 8 -4 15 -9 15 -4 0 -8
-4 -8 -9z"/>
<path d="M2750 4335 c0 -8 2 -15 4 -15 2 0 6 7 10 15 3 8 1 15 -4 15 -6 0 -10
-7 -10 -15z"/>
<path d="M2801 4335 c-25 -14 -25 -14 10 -13 19 1 28 3 21 5 -6 3 -10 9 -6 14
6 11 6 11 -25 -6z"/>
<path d="M2410 4334 c0 -6 3 -14 7 -17 11 -11 14 -67 3 -67 -5 0 -7 -7 -4 -15
5 -11 2 -13 -10 -9 -10 4 -16 1 -16 -9 0 -11 8 -15 28 -12 15 2 27 4 27 5 0 1
10 3 22 4 18 2 20 0 12 -11 -18 -21 6 -16 32 8 13 11 18 17 10 13 -7 -3 -17
-1 -21 7 -7 10 -11 10 -24 0 -13 -11 -16 -11 -16 0 0 12 -2 12 -9 0 -11 -18
-21 0 -14 27 3 13 19 26 42 34 25 8 31 13 18 16 -10 2 -25 -2 -33 -9 -19 -16
-30 -4 -14 16 7 9 10 19 6 22 -4 4 -11 1 -17 -7 -8 -13 -10 -13 -19 0 -5 8
-10 10 -10 4z"/>
<path d="M2690 4329 c0 -6 -6 -9 -13 -6 -6 2 -18 -2 -25 -9 -16 -17 -7 -17 41
0 29 10 35 15 22 20 -23 8 -25 8 -25 -5z"/>
<path d="M2525 4320 c3 -5 10 -10 16 -10 5 0 9 5 9 10 0 6 -7 10 -16 10 -8 0
-12 -4 -9 -10z"/>
<path d="M2608 4313 c-25 -6 -23 -22 2 -20 11 1 20 7 20 14 0 7 -1 12 -2 12
-2 -1 -11 -3 -20 -6z"/>
<path d="M2298 4298 c-11 -9 -15 -23 -11 -45 6 -36 15 -39 56 -20 32 14 35 27
7 27 -11 0 -20 -4 -20 -10 0 -5 -5 -10 -11 -10 -8 0 -9 4 0 13 13 17 5 27 -17
21 -15 -5 -14 -4 0 6 13 8 23 8 37 0 11 -5 24 -10 30 -10 18 0 12 17 -6 23
-10 2 -25 8 -33 11 -9 4 -23 1 -32 -6z"/>
<path d="M2900 4300 c0 -5 5 -10 11 -10 5 0 7 5 4 10 -3 6 -8 10 -11 10 -2 0
-4 -4 -4 -10z"/>
<path d="M2390 4282 c0 -10 6 -19 14 -19 8 0 11 8 8 19 -2 10 -8 18 -13 18 -5
0 -9 -8 -9 -18z"/>
<path d="M2830 4279 c0 -5 5 -7 10 -4 6 3 10 8 10 11 0 2 -4 4 -10 4 -5 0 -10
-5 -10 -11z"/>
<path d="M2530 4270 c0 -5 5 -10 11 -10 5 0 7 5 4 10 -3 6 -8 10 -11 10 -2 0
-4 -4 -4 -10z"/>
<path d="M2595 4263 c-6 -17 25 -16 47 1 16 12 15 13 -12 12 -16 -1 -32 -7
-35 -13z"/>
<path d="M2674 4264 c-15 -12 -16 -15 -2 -10 9 3 19 0 21 -7 3 -7 4 -2 4 11
-1 12 -2 22 -2 22 -1 0 -10 -7 -21 -16z"/>
<path d="M2790 4271 c0 -5 6 -14 14 -20 12 -10 13 -8 9 8 -5 21 -23 30 -23 12z"/>
<path d="M2467 4257 c3 -5 14 -7 24 -4 11 3 19 1 19 -4 0 -5 5 -9 12 -9 9 0 9
3 0 12 -13 13 -63 18 -55 5z"/>
<path d="M2540 4233 c0 -5 5 -15 10 -23 7 -12 9 -10 7 8 -1 19 -17 33 -17 15z"/>
<path d="M2592 4224 c-7 -7 -12 -21 -12 -31 -1 -19 -22 -53 -34 -53 -4 0 -2 9
4 19 14 28 12 35 -5 17 -8 -8 -15 -19 -15 -24 0 -6 -8 -13 -17 -17 -31 -13 16
-23 60 -13 21 5 42 6 48 3 5 -4 9 -2 9 3 0 6 10 12 23 15 16 5 22 13 22 35 0
16 -6 35 -14 43 -13 11 -14 11 -9 -1 3 -8 0 -27 -6 -42 -11 -25 -13 -25 -36
-12 -22 13 -22 14 -3 9 18 -5 22 -2 20 17 -2 33 -19 48 -35 32z"/>
<path d="M2702 4211 c2 -7 7 -12 11 -12 12 1 9 15 -3 20 -7 2 -11 -2 -8 -8z"/>
<path d="M2447 4203 c-4 -3 -7 -16 -8 -27 0 -20 -1 -20 -9 1 -6 15 -15 21 -25
17 -8 -3 -12 -10 -9 -15 3 -5 1 -9 -4 -9 -17 0 -1 -38 17 -43 21 -5 66 29 51
38 -6 4 -8 15 -5 26 7 20 3 24 -8 12z"/>
<path d="M2480 4155 c0 -8 -7 -15 -15 -15 -8 0 -15 -5 -15 -11 0 -5 5 -7 10
-4 6 3 10 0 10 -7 1 -7 7 -2 15 12 17 30 18 40 5 40 -5 0 -10 -7 -10 -15z"/>
<path d="M2652 4119 c-7 -10 -12 -24 -12 -31 0 -9 3 -8 10 2 5 8 10 11 10 6 0
-10 30 13 30 24 0 17 -27 17 -38 -1z"/>
<path d="M2359 3604 c-202 -36 -407 -142 -550 -284 -139 -137 -225 -286 -277
-478 -22 -84 -26 -117 -26 -247 -1 -221 43 -389 148 -560 161 -266 394 -435
689 -502 101 -22 127 -25 262 -20 107 3 172 10 227 25 365 98 643 372 744 735
32 113 45 365 24 481 -50 285 -243 562 -498 713 -109 65 -271 124 -392 143
-89 14 -259 11 -351 -6z m329 -177 c60 -28 77 -46 47 -48 -17 -2 -24 -3 -45
-12 -8 -3 -22 -8 -30 -10 -11 -4 -11 -6 3 -6 29 -1 177 -52 177 -60 0 -5 -16
-7 -35 -5 -26 2 -35 -2 -35 -13 0 -9 -6 -13 -15 -9 -8 3 -15 1 -15 -4 0 -5 -7
-6 -17 -3 -11 4 -14 3 -9 -5 4 -7 1 -12 -8 -12 -9 0 -16 -4 -16 -9 0 -5 -13
-14 -30 -21 -16 -7 -27 -16 -24 -21 6 -10 -25 -40 -60 -60 -14 -9 -17 -8 -14
3 3 7 -8 21 -24 31 -23 14 -28 22 -22 39 5 18 3 20 -12 14 -15 -6 -17 -5 -6 5
14 15 16 33 2 24 -5 -3 -27 13 -50 36 -22 23 -40 38 -40 35 0 -4 -5 -4 -11 0
-18 11 16 25 95 39 43 8 58 14 39 14 -18 1 -33 6 -33 11 0 6 -8 10 -17 10 -10
0 -24 4 -32 9 -13 8 20 28 89 54 32 12 88 2 148 -26z m-138 -391 c0 -2 -7 -6
-15 -10 -8 -3 -15 -1 -15 4 0 6 7 10 15 10 8 0 15 -2 15 -4z m78 -3 c-10 -2
-18 -9 -18 -15 0 -6 -6 -6 -15 2 -10 9 -15 9 -15 1 0 -6 -8 -11 -17 -10 -11 0
-13 3 -5 6 6 2 10 9 6 14 -3 5 14 8 38 8 24 -1 35 -3 26 -6z m345 -68 c6 4 4
0 -5 -8 -16 -12 -14 -14 15 -14 18 0 26 2 20 5 -7 2 -13 8 -13 14 0 6 7 8 15
5 8 -4 17 -2 20 4 7 11 25 2 25 -12 0 -6 -6 -7 -12 -3 -8 4 -10 3 -5 -2 5 -5
13 -9 19 -9 6 0 17 -9 24 -21 13 -19 10 -22 -63 -60 l-77 -40 -48 50 c-65 68
-47 84 23 20 29 -27 49 -44 46 -37 -4 6 -3 14 3 18 17 10 11 29 -19 62 -31 34
-31 49 1 32 10 -5 24 -7 31 -4z m164 -155 c37 -77 36 -80 -37 -101 -36 -11
-71 -19 -77 -19 -7 0 -24 22 -38 50 l-25 50 67 34 c38 19 73 34 78 33 6 -2 20
-23 32 -47z m-555 -207 c-6 -2 -10 -9 -6 -14 3 -5 -2 -9 -10 -9 -10 0 -13 6
-10 15 4 8 14 15 23 14 10 0 11 -2 3 -6z m758 -67 c0 -3 -4 -8 -10 -11 -5 -3
-10 -1 -10 4 0 6 5 11 10 11 6 0 10 -2 10 -4z"/>
<path d="M1361 2624 c0 -11 3 -14 6 -6 3 7 2 16 -1 19 -3 4 -6 -2 -5 -13z"/>
<path d="M1362 2537 c1 -38 6 -74 10 -80 4 -7 6 21 4 62 -3 40 -8 76 -11 79
-4 4 -5 -24 -3 -61z"/>
<path d="M1295 3321 c-3 -5 -1 -12 5 -16 12 -7 30 2 30 16 0 12 -27 12 -35 0z"/>
</g>
</svg>
